<?xml version="1.0" encoding="UTF-8" standalone="no"?>
<!DOCTYPE svg PUBLIC "-//W3C//DTD SVG 1.1//EN" "http://www.w3.org/Graphics/SVG/1.1/DTD/svg11.dtd">
<svg width="100%" height="100%" viewBox="0 0 2000 2000" version="1.1" xmlns="http://www.w3.org/2000/svg" xmlns:xlink="http://www.w3.org/1999/xlink" xml:space="preserve" xmlns:serif="http://www.serif.com/" style="fill-rule:evenodd;clip-rule:evenodd;stroke-linejoin:round;stroke-miterlimit:2;">
    <g transform="matrix(1.34551,0,0,1.34551,-715.402,-299.869)">
        <g transform="matrix(4.5168,0,0,6.71579,66.96,-883.18)">
            <rect x="-94.741" y="108.804" width="694.741" height="467.259" style="fill:rgb(148,148,86);"/>
        </g>
        <g transform="matrix(5.23002,0,0,5.23002,-360.968,-152.477)">
            <path d="M58.324,300L36.029,316.344L15.435,325.862L4.426,339.6L-19.554,85.352L24.132,79.768L33.611,60.516L36.454,33.738L12.863,47.616L0,45.47L0,0L111.323,0L126.454,42.676L182.644,32.164L170.369,8.744L203.54,16.316L209.345,-5.502L255.135,0L262.49,25.766L230.053,28.908L247.116,50.486L258.117,42.676L271.299,85.352L290,110.284L319.207,132.421L352.893,155.208L317.66,179.49L342.909,207.651L401.57,201.73L414.636,156.828C414.636,156.828 421.425,131.288 413.261,132.421C405.098,133.553 369.583,114.353 369.583,114.353L352.893,120.7L329.697,97.641L352.893,42.676L340.049,30.574L300,59.814L308.238,22.9L310.013,0L460.837,0L450.336,13.389L463.019,28.478L478.419,32.342L537.664,33.037L517.63,0L600,0L600,98.298L569.681,69.431L537.664,97.25L559.976,147.21L572.698,179.49L573.292,204.078L572.253,233.967L575.586,269.283L600,218.026L600,309.146L586.086,322.93L600,449.453L600,600L10.366,600L5.165,589.991L0,594.293L0,499.178L23.433,516.25L54.22,518.517L67.785,536.624L93.429,538.839L122.543,525.691L109.79,511.189L141.339,494.817L147.869,483.178L49.832,462.882L41.495,400.267L-8.873,432.871L-7.236,374.888L62.05,382.416L67.785,347.448L93.429,337.717L135.569,378.394L179.594,400.267L37.889,336.581L151.488,309.146L161.741,285.286L141.339,224.789L216.008,232.354L256.824,218.026L215.889,204.29L221.918,177.855L283.166,184.597L280.778,132.421L254.962,124.576L185.25,132.421L152.789,132.421L100.937,122.218L67.785,111.411L50.606,115.812L36.336,157.075L23.237,171.844L93.429,205.619L36.472,209.354L60.861,218.026L36.892,250.768L0,236.804L9.677,274.683L105.422,265.585L102.376,300L58.324,300ZM308.339,309.146L275.695,309.146L256.969,326.075L279.416,375.363L287.277,394.985L241.728,431.909L238.432,498.058L217.971,498.192C217.971,498.192 204.069,481.257 197.733,481.4C191.396,481.543 172.597,485.971 172.597,485.971L187.587,523.189L219.524,534.723L225.18,530.72L267.187,548.306L388.865,539.934C388.865,539.934 382.291,510.741 374.646,501.794C367.002,492.847 343.394,466.311 343.394,466.311L327.408,471.891C327.408,471.891 307.133,468.252 300,462.892C292.867,457.532 291.918,441.687 291.918,441.687L334.209,373.298L316.542,353.98L333.154,327.479L308.339,309.146ZM393.785,367.394L409.6,426.416L441.169,473.498L432.147,526.178L482.931,570.854L499.355,530.77L531.156,535.759C531.156,535.759 490.462,465.733 486.096,461.169C481.73,456.605 465.427,429.081 465.427,429.081L513.561,403.584L561.837,403.584L516.809,346.788L485.742,336.49L391.923,353.355L393.785,367.394ZM416.483,218.026L374.646,233.425L374.646,249.913L438.338,266.166L479.51,290.314L486.769,242.34L537.664,274.342L546.573,222.181L522.466,218.026L504.374,176.428L482.039,133.66L441.96,193.363L426.565,231.983L416.483,218.026Z" style="fill:rgb(91,95,36);"/>
        </g>
        <g transform="matrix(5.23002,0,0,5.23002,-360.968,-152.477)">
            <path d="M172.597,118.78L163.146,164.704L191.802,207.872L219.938,157.808L299.535,140.43L273.688,128.833L247.116,106.737L236.902,75.292L221.979,77.158L215.411,115.824L172.597,118.78Z"/>
        </g>
        <g transform="matrix(5.23002,0,0,5.23002,-360.968,-152.477)">
            <path d="M317.145,270.431L326.629,243.438L388.865,288.912L403.35,313.202L428.399,272.441L460.837,358.712L388.865,403.696L374.646,338.054L322.995,345.367L345.978,300L317.145,270.431Z"/>
        </g>
        <g transform="matrix(5.23002,0,0,5.23002,-308.668,-100.177)">
            <path d="M270.731,108.26L317.145,99.889L370.779,89.303L434.413,105.45L432.147,126.429L485.379,183.68L444.598,233.057L410.033,160.658L364.562,158.243L294.715,197.182L300,128.746L270.731,108.26Z" style="fill:rgb(61,65,38);"/>
        </g>
        <g transform="matrix(5.23002,0,0,5.23002,-360.968,-152.477)">
            <path d="M355.016,93.171L335.24,56.851L410.033,52.539L443.884,47.3L482.172,94.996L495.379,118.011L447.755,157.234L435.839,172.467L414.115,151.026L423.281,121.29L437.708,98.173L420.76,82.414L360.735,80.773L355.016,93.171Z"/>
        </g>
        <g transform="matrix(5.23002,0,0,5.23002,-360.968,-152.477)">
            <path d="M145.319,392.469L161.741,358.201L193.226,321.791L179.645,267.897L197.733,218.026L218.819,277.386L300,225.87L352.893,298.397L280.731,297.249L241.965,309.501L245.1,345.582L197.594,343.248L180.437,358.898L162.91,434.059L145.319,392.469Z" style="fill:rgb(61,65,38);"/>
        </g>
    </g>
</svg>
